<mxfile host="Electron" agent="Mozilla/5.0 (Windows NT 10.0; Win64; x64) AppleWebKit/537.36 (KHTML, like Gecko) draw.io/26.2.2 Chrome/134.0.6998.178 Electron/35.1.2 Safari/537.36" version="26.2.2">
  <diagram name="Page-1" id="dg5urbYTmqW6ZuPWZVn8">
    <mxGraphModel dx="1428" dy="849" grid="1" gridSize="10" guides="1" tooltips="1" connect="1" arrows="1" fold="1" page="1" pageScale="1" pageWidth="850" pageHeight="1100" math="0" shadow="0">
      <root>
        <mxCell id="0" />
        <mxCell id="1" parent="0" />
        <mxCell id="zzE75vGplJHr4HeWAqKS-14" style="edgeStyle=orthogonalEdgeStyle;rounded=0;orthogonalLoop=1;jettySize=auto;html=1;curved=0;dashed=1;" edge="1" parent="1" source="vcTLg_IDzQYBxWwtrujO-3" target="vcTLg_IDzQYBxWwtrujO-4">
          <mxGeometry relative="1" as="geometry">
            <Array as="points">
              <mxPoint x="360" y="580" />
              <mxPoint x="360" y="580" />
            </Array>
          </mxGeometry>
        </mxCell>
        <mxCell id="zzE75vGplJHr4HeWAqKS-15" value="Alice&#39;s public ECDSA key" style="edgeLabel;html=1;align=center;verticalAlign=middle;resizable=0;points=[];" vertex="1" connectable="0" parent="zzE75vGplJHr4HeWAqKS-14">
          <mxGeometry x="-0.0886" y="2" relative="1" as="geometry">
            <mxPoint x="9" y="-8" as="offset" />
          </mxGeometry>
        </mxCell>
        <mxCell id="vcTLg_IDzQYBxWwtrujO-3" value="" style="html=1;points=[[0,0,0,0,5],[0,1,0,0,-5],[1,0,0,0,5],[1,1,0,0,-5]];perimeter=orthogonalPerimeter;outlineConnect=0;targetShapes=umlLifeline;portConstraint=eastwest;newEdgeStyle={&quot;curved&quot;:0,&quot;rounded&quot;:0};" parent="1" vertex="1">
          <mxGeometry x="130" y="120" width="10" height="780" as="geometry" />
        </mxCell>
        <mxCell id="zzE75vGplJHr4HeWAqKS-12" style="edgeStyle=orthogonalEdgeStyle;rounded=0;orthogonalLoop=1;jettySize=auto;html=1;curved=0;" edge="1" parent="1" source="vcTLg_IDzQYBxWwtrujO-4" target="vcTLg_IDzQYBxWwtrujO-3">
          <mxGeometry relative="1" as="geometry">
            <Array as="points">
              <mxPoint x="360" y="550" />
              <mxPoint x="360" y="550" />
            </Array>
          </mxGeometry>
        </mxCell>
        <mxCell id="zzE75vGplJHr4HeWAqKS-13" value="request Alice&#39;s public ECDSA key" style="edgeLabel;html=1;align=center;verticalAlign=middle;resizable=0;points=[];" vertex="1" connectable="0" parent="zzE75vGplJHr4HeWAqKS-12">
          <mxGeometry x="0.1074" y="1" relative="1" as="geometry">
            <mxPoint x="23" y="-11" as="offset" />
          </mxGeometry>
        </mxCell>
        <mxCell id="vcTLg_IDzQYBxWwtrujO-4" value="" style="html=1;points=[[0,0,0,0,5],[0,1,0,0,-5],[1,0,0,0,5],[1,1,0,0,-5]];perimeter=orthogonalPerimeter;outlineConnect=0;targetShapes=umlLifeline;portConstraint=eastwest;newEdgeStyle={&quot;curved&quot;:0,&quot;rounded&quot;:0};" parent="1" vertex="1">
          <mxGeometry x="580" y="120" width="10" height="780" as="geometry" />
        </mxCell>
        <mxCell id="vcTLg_IDzQYBxWwtrujO-5" value="" style="html=1;points=[[0,0,0,0,5],[0,1,0,0,-5],[1,0,0,0,5],[1,1,0,0,-5]];perimeter=orthogonalPerimeter;outlineConnect=0;targetShapes=umlLifeline;portConstraint=eastwest;newEdgeStyle={&quot;curved&quot;:0,&quot;rounded&quot;:0};" parent="1" vertex="1">
          <mxGeometry x="130" y="150" width="10" height="40" as="geometry" />
        </mxCell>
        <mxCell id="vcTLg_IDzQYBxWwtrujO-6" value="get email from console" style="html=1;align=left;spacingLeft=2;endArrow=block;rounded=0;edgeStyle=orthogonalEdgeStyle;curved=0;rounded=0;" parent="1" target="vcTLg_IDzQYBxWwtrujO-5" edge="1">
          <mxGeometry relative="1" as="geometry">
            <mxPoint x="135" y="130" as="sourcePoint" />
            <Array as="points">
              <mxPoint x="165" y="130" />
              <mxPoint x="165" y="150" />
            </Array>
          </mxGeometry>
        </mxCell>
        <mxCell id="vcTLg_IDzQYBxWwtrujO-11" value="" style="html=1;points=[[0,0,0,0,5],[0,1,0,0,-5],[1,0,0,0,5],[1,1,0,0,-5]];perimeter=orthogonalPerimeter;outlineConnect=0;targetShapes=umlLifeline;portConstraint=eastwest;newEdgeStyle={&quot;curved&quot;:0,&quot;rounded&quot;:0};" parent="1" vertex="1">
          <mxGeometry x="130" y="330" width="10" height="40" as="geometry" />
        </mxCell>
        <mxCell id="vcTLg_IDzQYBxWwtrujO-14" value="" style="swimlane;startSize=0;" parent="1" vertex="1">
          <mxGeometry x="120" y="160" width="500" height="120" as="geometry" />
        </mxCell>
        <mxCell id="vcTLg_IDzQYBxWwtrujO-7" style="edgeStyle=orthogonalEdgeStyle;rounded=0;orthogonalLoop=1;jettySize=auto;html=1;curved=0;" parent="vcTLg_IDzQYBxWwtrujO-14" edge="1">
          <mxGeometry relative="1" as="geometry">
            <mxPoint x="20" y="59.170000000000016" as="sourcePoint" />
            <mxPoint x="460" y="59.170000000000016" as="targetPoint" />
          </mxGeometry>
        </mxCell>
        <mxCell id="vcTLg_IDzQYBxWwtrujO-8" value="request Bob&#39;s public&amp;nbsp;&lt;span style=&quot;text-align: left;&quot;&gt;McEliece&amp;nbsp;&lt;/span&gt;key" style="edgeLabel;html=1;align=center;verticalAlign=middle;resizable=0;points=[];" parent="vcTLg_IDzQYBxWwtrujO-7" vertex="1" connectable="0">
          <mxGeometry x="-0.0803" y="-3" relative="1" as="geometry">
            <mxPoint y="-13" as="offset" />
          </mxGeometry>
        </mxCell>
        <mxCell id="vcTLg_IDzQYBxWwtrujO-9" style="edgeStyle=orthogonalEdgeStyle;rounded=0;orthogonalLoop=1;jettySize=auto;html=1;curved=0;dashed=1;" parent="vcTLg_IDzQYBxWwtrujO-14" edge="1">
          <mxGeometry relative="1" as="geometry">
            <mxPoint x="460" y="99.17000000000002" as="sourcePoint" />
            <mxPoint x="20" y="99.17000000000002" as="targetPoint" />
          </mxGeometry>
        </mxCell>
        <mxCell id="vcTLg_IDzQYBxWwtrujO-10" value="Bob&#39;s public&amp;nbsp;&lt;span style=&quot;text-align: left;&quot;&gt;McEliece&amp;nbsp;&lt;/span&gt;key" style="edgeLabel;html=1;align=center;verticalAlign=middle;resizable=0;points=[];" parent="vcTLg_IDzQYBxWwtrujO-9" vertex="1" connectable="0">
          <mxGeometry x="-0.1962" y="-2" relative="1" as="geometry">
            <mxPoint x="-43" y="-8" as="offset" />
          </mxGeometry>
        </mxCell>
        <mxCell id="vcTLg_IDzQYBxWwtrujO-13" value="McEliece algorithem" style="text;html=1;align=center;verticalAlign=middle;resizable=0;points=[];autosize=1;strokeColor=none;fillColor=none;" parent="vcTLg_IDzQYBxWwtrujO-14" vertex="1">
          <mxGeometry x="175" width="130" height="30" as="geometry" />
        </mxCell>
        <mxCell id="vcTLg_IDzQYBxWwtrujO-29" value="" style="swimlane;startSize=0;" parent="1" vertex="1">
          <mxGeometry x="120" y="290" width="830" height="590" as="geometry" />
        </mxCell>
        <mxCell id="vcTLg_IDzQYBxWwtrujO-30" value="Blowfish + ECDSA algorithems" style="text;html=1;align=center;verticalAlign=middle;resizable=0;points=[];autosize=1;strokeColor=none;fillColor=none;" parent="vcTLg_IDzQYBxWwtrujO-29" vertex="1">
          <mxGeometry x="130" width="190" height="30" as="geometry" />
        </mxCell>
        <mxCell id="vcTLg_IDzQYBxWwtrujO-34" value="encrypt blowfish key with Bob&#39;s public McEliece key" style="html=1;align=left;spacingLeft=2;endArrow=block;rounded=0;edgeStyle=orthogonalEdgeStyle;curved=0;rounded=0;" parent="vcTLg_IDzQYBxWwtrujO-29" edge="1">
          <mxGeometry relative="1" as="geometry">
            <mxPoint x="10" y="110" as="sourcePoint" />
            <Array as="points">
              <mxPoint x="40" y="140" />
            </Array>
            <mxPoint x="15" y="140" as="targetPoint" />
          </mxGeometry>
        </mxCell>
        <mxCell id="vcTLg_IDzQYBxWwtrujO-35" value="sign message with ECDSA" style="html=1;align=left;spacingLeft=2;endArrow=block;rounded=0;edgeStyle=orthogonalEdgeStyle;curved=0;rounded=0;" parent="vcTLg_IDzQYBxWwtrujO-29" edge="1">
          <mxGeometry relative="1" as="geometry">
            <mxPoint x="10" y="160" as="sourcePoint" />
            <Array as="points">
              <mxPoint x="40" y="190" />
            </Array>
            <mxPoint x="15" y="190" as="targetPoint" />
          </mxGeometry>
        </mxCell>
        <mxCell id="vcTLg_IDzQYBxWwtrujO-36" style="edgeStyle=orthogonalEdgeStyle;rounded=0;orthogonalLoop=1;jettySize=auto;html=1;curved=0;" parent="vcTLg_IDzQYBxWwtrujO-29" edge="1">
          <mxGeometry relative="1" as="geometry">
            <mxPoint x="20" y="220" as="sourcePoint" />
            <mxPoint x="460" y="220" as="targetPoint" />
          </mxGeometry>
        </mxCell>
        <mxCell id="vcTLg_IDzQYBxWwtrujO-37" value="sends encryped message, encrypted key, and signature" style="edgeLabel;html=1;align=center;verticalAlign=middle;resizable=0;points=[];" parent="vcTLg_IDzQYBxWwtrujO-36" vertex="1" connectable="0">
          <mxGeometry x="-0.0803" y="-3" relative="1" as="geometry">
            <mxPoint y="-13" as="offset" />
          </mxGeometry>
        </mxCell>
        <mxCell id="vcTLg_IDzQYBxWwtrujO-47" value="if" style="shape=umlFrame;whiteSpace=wrap;html=1;pointerEvents=0;" parent="vcTLg_IDzQYBxWwtrujO-29" vertex="1">
          <mxGeometry x="380" y="350" width="400" height="150" as="geometry" />
        </mxCell>
        <mxCell id="vcTLg_IDzQYBxWwtrujO-49" value="" style="html=1;points=[[0,0,0,0,5],[0,1,0,0,-5],[1,0,0,0,5],[1,1,0,0,-5]];perimeter=orthogonalPerimeter;outlineConnect=0;targetShapes=umlLifeline;portConstraint=eastwest;newEdgeStyle={&quot;curved&quot;:0,&quot;rounded&quot;:0};" parent="vcTLg_IDzQYBxWwtrujO-29" vertex="1">
          <mxGeometry x="460" y="340" width="10" height="40" as="geometry" />
        </mxCell>
        <mxCell id="vcTLg_IDzQYBxWwtrujO-38" value="" style="html=1;points=[[0,0,0,0,5],[0,1,0,0,-5],[1,0,0,0,5],[1,1,0,0,-5]];perimeter=orthogonalPerimeter;outlineConnect=0;targetShapes=umlLifeline;portConstraint=eastwest;newEdgeStyle={&quot;curved&quot;:0,&quot;rounded&quot;:0};" parent="vcTLg_IDzQYBxWwtrujO-29" vertex="1">
          <mxGeometry x="460" y="400" width="10" height="40" as="geometry" />
        </mxCell>
        <mxCell id="vcTLg_IDzQYBxWwtrujO-39" value="decrypt Blowfish key using Bob&#39;s private McEliece key" style="html=1;align=left;spacingLeft=2;endArrow=block;rounded=0;edgeStyle=orthogonalEdgeStyle;curved=0;rounded=0;" parent="vcTLg_IDzQYBxWwtrujO-29" edge="1">
          <mxGeometry relative="1" as="geometry">
            <mxPoint x="460" y="380" as="sourcePoint" />
            <Array as="points">
              <mxPoint x="490" y="410" />
            </Array>
            <mxPoint x="465" y="410" as="targetPoint" />
          </mxGeometry>
        </mxCell>
        <mxCell id="zzE75vGplJHr4HeWAqKS-16" value="" style="html=1;points=[[0,0,0,0,5],[0,1,0,0,-5],[1,0,0,0,5],[1,1,0,0,-5]];perimeter=orthogonalPerimeter;outlineConnect=0;targetShapes=umlLifeline;portConstraint=eastwest;newEdgeStyle={&quot;curved&quot;:0,&quot;rounded&quot;:0};" vertex="1" parent="vcTLg_IDzQYBxWwtrujO-29">
          <mxGeometry x="460" y="320" width="10" height="40" as="geometry" />
        </mxCell>
        <mxCell id="zzE75vGplJHr4HeWAqKS-17" value="verify signature" style="html=1;align=left;spacingLeft=2;endArrow=block;rounded=0;edgeStyle=orthogonalEdgeStyle;curved=0;rounded=0;" edge="1" target="zzE75vGplJHr4HeWAqKS-16" parent="vcTLg_IDzQYBxWwtrujO-29">
          <mxGeometry x="0.0061" relative="1" as="geometry">
            <mxPoint x="465" y="300" as="sourcePoint" />
            <Array as="points">
              <mxPoint x="495" y="330" />
            </Array>
            <mxPoint as="offset" />
          </mxGeometry>
        </mxCell>
        <mxCell id="zzE75vGplJHr4HeWAqKS-18" value="if the signature is valid" style="text;html=1;align=center;verticalAlign=middle;resizable=0;points=[];autosize=1;strokeColor=none;fillColor=none;" vertex="1" parent="vcTLg_IDzQYBxWwtrujO-29">
          <mxGeometry x="560" y="350" width="140" height="30" as="geometry" />
        </mxCell>
        <mxCell id="zzE75vGplJHr4HeWAqKS-19" value="decrypt message using the decrypted Blowfish key" style="html=1;align=left;spacingLeft=2;endArrow=block;rounded=0;edgeStyle=orthogonalEdgeStyle;curved=0;rounded=0;" edge="1" parent="vcTLg_IDzQYBxWwtrujO-29">
          <mxGeometry relative="1" as="geometry">
            <mxPoint x="460" y="440" as="sourcePoint" />
            <Array as="points">
              <mxPoint x="490" y="470" />
            </Array>
            <mxPoint x="465" y="470" as="targetPoint" />
          </mxGeometry>
        </mxCell>
        <mxCell id="zzE75vGplJHr4HeWAqKS-20" value="else" style="shape=umlFrame;whiteSpace=wrap;html=1;pointerEvents=0;" vertex="1" parent="vcTLg_IDzQYBxWwtrujO-29">
          <mxGeometry x="380" y="500" width="400" height="70" as="geometry" />
        </mxCell>
        <mxCell id="vcTLg_IDzQYBxWwtrujO-32" value="" style="html=1;points=[[0,0,0,0,5],[0,1,0,0,-5],[1,0,0,0,5],[1,1,0,0,-5]];perimeter=orthogonalPerimeter;outlineConnect=0;targetShapes=umlLifeline;portConstraint=eastwest;newEdgeStyle={&quot;curved&quot;:0,&quot;rounded&quot;:0};" parent="1" vertex="1">
          <mxGeometry x="130" y="370" width="10" height="40" as="geometry" />
        </mxCell>
        <mxCell id="vcTLg_IDzQYBxWwtrujO-33" value="encrypt message with private Blowfish key" style="html=1;align=left;spacingLeft=2;endArrow=block;rounded=0;edgeStyle=orthogonalEdgeStyle;curved=0;rounded=0;" parent="1" target="vcTLg_IDzQYBxWwtrujO-32" edge="1">
          <mxGeometry relative="1" as="geometry">
            <mxPoint x="135" y="350" as="sourcePoint" />
            <Array as="points">
              <mxPoint x="165" y="380" />
            </Array>
          </mxGeometry>
        </mxCell>
        <mxCell id="zzE75vGplJHr4HeWAqKS-3" value="Alice" style="swimlane;fontStyle=0;childLayout=stackLayout;horizontal=1;startSize=26;fillColor=none;horizontalStack=0;resizeParent=1;resizeParentMax=0;resizeLast=0;collapsible=1;marginBottom=0;whiteSpace=wrap;html=1;" vertex="1" parent="1">
          <mxGeometry x="70" y="10" width="140" height="104" as="geometry" />
        </mxCell>
        <mxCell id="zzE75vGplJHr4HeWAqKS-4" value="private Blowfish key" style="text;strokeColor=none;fillColor=none;align=left;verticalAlign=top;spacingLeft=4;spacingRight=4;overflow=hidden;rotatable=0;points=[[0,0.5],[1,0.5]];portConstraint=eastwest;whiteSpace=wrap;html=1;" vertex="1" parent="zzE75vGplJHr4HeWAqKS-3">
          <mxGeometry y="26" width="140" height="26" as="geometry" />
        </mxCell>
        <mxCell id="zzE75vGplJHr4HeWAqKS-5" value="public&amp;nbsp;&lt;span data-huuid=&quot;16546308881695584790&quot;&gt;ECDSA&lt;/span&gt;&amp;nbsp;key" style="text;strokeColor=none;fillColor=none;align=left;verticalAlign=top;spacingLeft=4;spacingRight=4;overflow=hidden;rotatable=0;points=[[0,0.5],[1,0.5]];portConstraint=eastwest;whiteSpace=wrap;html=1;" vertex="1" parent="zzE75vGplJHr4HeWAqKS-3">
          <mxGeometry y="52" width="140" height="26" as="geometry" />
        </mxCell>
        <mxCell id="zzE75vGplJHr4HeWAqKS-6" value="private&amp;nbsp;&lt;span data-huuid=&quot;16546308881695584790&quot;&gt;ECDSA&lt;/span&gt;&amp;nbsp;key" style="text;strokeColor=none;fillColor=none;align=left;verticalAlign=top;spacingLeft=4;spacingRight=4;overflow=hidden;rotatable=0;points=[[0,0.5],[1,0.5]];portConstraint=eastwest;whiteSpace=wrap;html=1;" vertex="1" parent="zzE75vGplJHr4HeWAqKS-3">
          <mxGeometry y="78" width="140" height="26" as="geometry" />
        </mxCell>
        <mxCell id="zzE75vGplJHr4HeWAqKS-7" value="Bob" style="swimlane;fontStyle=0;childLayout=stackLayout;horizontal=1;startSize=26;fillColor=none;horizontalStack=0;resizeParent=1;resizeParentMax=0;resizeLast=0;collapsible=1;marginBottom=0;whiteSpace=wrap;html=1;" vertex="1" parent="1">
          <mxGeometry x="515" y="36" width="140" height="78" as="geometry" />
        </mxCell>
        <mxCell id="zzE75vGplJHr4HeWAqKS-9" value="public McEliece key" style="text;strokeColor=none;fillColor=none;align=left;verticalAlign=top;spacingLeft=4;spacingRight=4;overflow=hidden;rotatable=0;points=[[0,0.5],[1,0.5]];portConstraint=eastwest;whiteSpace=wrap;html=1;" vertex="1" parent="zzE75vGplJHr4HeWAqKS-7">
          <mxGeometry y="26" width="140" height="26" as="geometry" />
        </mxCell>
        <mxCell id="zzE75vGplJHr4HeWAqKS-10" value="private McEliece&amp;nbsp;key" style="text;strokeColor=none;fillColor=none;align=left;verticalAlign=top;spacingLeft=4;spacingRight=4;overflow=hidden;rotatable=0;points=[[0,0.5],[1,0.5]];portConstraint=eastwest;whiteSpace=wrap;html=1;" vertex="1" parent="zzE75vGplJHr4HeWAqKS-7">
          <mxGeometry y="52" width="140" height="26" as="geometry" />
        </mxCell>
        <mxCell id="vcTLg_IDzQYBxWwtrujO-44" style="edgeStyle=orthogonalEdgeStyle;rounded=0;orthogonalLoop=1;jettySize=auto;html=1;curved=0;dashed=1;" parent="1" edge="1" target="vcTLg_IDzQYBxWwtrujO-3" source="vcTLg_IDzQYBxWwtrujO-4">
          <mxGeometry relative="1" as="geometry">
            <mxPoint x="570" y="780" as="sourcePoint" />
            <mxPoint x="130" y="780" as="targetPoint" />
            <Array as="points">
              <mxPoint x="380" y="780" />
              <mxPoint x="380" y="780" />
            </Array>
          </mxGeometry>
        </mxCell>
        <mxCell id="vcTLg_IDzQYBxWwtrujO-45" value="return valid reply" style="edgeLabel;html=1;align=center;verticalAlign=middle;resizable=0;points=[];" parent="vcTLg_IDzQYBxWwtrujO-44" vertex="1" connectable="0">
          <mxGeometry x="-0.1962" y="-2" relative="1" as="geometry">
            <mxPoint x="-43" y="-8" as="offset" />
          </mxGeometry>
        </mxCell>
        <mxCell id="zzE75vGplJHr4HeWAqKS-21" style="edgeStyle=orthogonalEdgeStyle;rounded=0;orthogonalLoop=1;jettySize=auto;html=1;curved=0;dashed=1;" edge="1" parent="1" source="vcTLg_IDzQYBxWwtrujO-4" target="vcTLg_IDzQYBxWwtrujO-3">
          <mxGeometry relative="1" as="geometry">
            <mxPoint x="580" y="870" as="sourcePoint" />
            <mxPoint x="140" y="870" as="targetPoint" />
            <Array as="points">
              <mxPoint x="380" y="840" />
              <mxPoint x="380" y="840" />
            </Array>
          </mxGeometry>
        </mxCell>
        <mxCell id="zzE75vGplJHr4HeWAqKS-22" value="return invalid reply" style="edgeLabel;html=1;align=center;verticalAlign=middle;resizable=0;points=[];" vertex="1" connectable="0" parent="zzE75vGplJHr4HeWAqKS-21">
          <mxGeometry x="-0.1962" y="-2" relative="1" as="geometry">
            <mxPoint x="-43" y="-8" as="offset" />
          </mxGeometry>
        </mxCell>
      </root>
    </mxGraphModel>
  </diagram>
</mxfile>
